<svg width="827" height="51" viewBox="0 0 827 51" fill="none" xmlns="http://www.w3.org/2000/svg">
<path d="M3.05256e-05 42.644L15.5119 13.0269C15.8896 12.3105 16.4757 11.757 17.2702 11.3663C18.0647 10.9625 18.8917 10.7606 19.7513 10.7606C20.5198 10.7606 21.2687 10.9365 21.998 11.2881C22.7404 11.6398 23.3135 12.1803 23.7172 12.9096L40.3622 42.644H24.5182L23.2874 39.5573H14.8477L13.7927 42.644H3.05256e-05ZM15.805 33.3643H22.1152L19.1262 24.9245L15.805 33.3643ZM261.195 42.644V11.4444C261.195 11.4444 261.599 11.4184 262.406 11.3663C263.227 11.3012 264.295 11.223 265.61 11.1318C266.938 11.0407 268.384 10.956 269.947 10.8779C271.523 10.7867 273.079 10.7151 274.616 10.663C276.166 10.5978 277.547 10.5653 278.758 10.5653C281.285 10.5653 283.427 10.8974 285.185 11.5616C286.944 12.2129 288.363 13.079 289.444 14.16C290.525 15.241 291.313 16.4327 291.808 17.7351C292.316 19.0376 292.57 20.34 292.57 21.6424C292.57 23.9217 291.991 25.8818 290.831 27.5229C289.672 29.1509 288.194 30.4989 286.397 31.5669L294.876 42.644H279.442L273.952 33.5987V42.644H261.195ZM273.874 27.9136C276.401 26.9759 278.211 25.96 279.305 24.8659C280.412 23.7589 280.966 22.5737 280.966 21.3103C280.966 20.2553 280.77 19.5325 280.379 19.1418C279.989 18.751 279.5 18.5557 278.914 18.5557C278.537 18.5557 278.146 18.6208 277.742 18.751C277.338 18.8682 276.915 19.018 276.472 19.2004L273.874 20.2749V27.9136ZM315.87 43.3669C314.294 43.3669 312.757 43.1194 311.259 42.6245C309.762 42.1296 308.407 41.3937 307.196 40.4169C305.985 39.427 305.021 38.2093 304.305 36.7636C303.588 35.3179 303.23 33.6378 303.23 31.7232C303.23 29.3398 303.653 27.2559 304.5 25.4716C305.359 23.6742 306.519 22.1829 307.977 20.9977C309.436 19.7995 311.09 18.9008 312.94 18.3017C314.789 17.7026 316.71 17.403 318.703 17.403C321.23 17.403 323.281 17.7872 324.857 18.5557C326.446 19.3241 327.611 20.3139 328.354 21.5252C329.096 22.7365 329.467 24.0128 329.467 25.3543C329.467 26.8 329.005 28.2001 328.08 29.5547C327.156 30.9092 325.795 32.0228 323.997 32.8954C322.213 33.768 320.012 34.2043 317.394 34.2043C317.146 34.2043 316.814 34.2043 316.398 34.2043C315.994 34.1913 315.642 34.1783 315.343 34.1652C315.343 34.9858 315.538 35.5784 315.929 35.9431C316.319 36.3077 316.808 36.5357 317.394 36.6268C317.993 36.718 318.592 36.7636 319.191 36.7636C319.725 36.7636 320.474 36.6789 321.438 36.5096C322.415 36.3273 323.47 36.0017 324.603 35.5328C325.736 35.0639 326.81 34.3932 327.826 33.5205L329.038 39.5964C327.501 40.9248 325.554 41.8886 323.196 42.4878C320.852 43.0738 318.41 43.3669 315.87 43.3669ZM315.343 29.7109L319.621 28.7537L319.992 25.7646C319.992 25.6865 319.999 25.6148 320.012 25.5497C320.025 25.4716 320.031 25.3934 320.031 25.3153C320.031 24.1691 319.497 23.5961 318.429 23.5961C317.505 23.6742 316.86 23.9933 316.495 24.5533C316.131 25.1004 315.896 25.8232 315.792 26.7219C315.688 27.6075 315.538 28.6039 315.343 29.7109ZM356.577 30.1212C356.577 28.376 356.277 27.08 355.678 26.2335C355.079 25.3869 354.5 24.9636 353.939 24.9636C353.353 24.9636 352.943 25.2111 352.709 25.706C352.487 26.2009 352.377 26.7935 352.377 27.4838V42.644H340.772V18.3603H347.18L349.974 22.1504C350.638 21.1605 351.478 20.3205 352.494 19.6302C353.523 18.9269 354.636 18.3864 355.835 18.0086C357.046 17.6309 358.251 17.4421 359.449 17.4421C360.999 17.4421 362.412 17.8133 363.688 18.5557C364.965 19.285 365.954 20.327 366.658 21.6815C367.713 20.34 368.956 19.2981 370.389 18.5557C371.822 17.8133 373.3 17.4421 374.824 17.4421C376.322 17.4421 377.689 17.7872 378.927 18.4775C380.164 19.1548 381.154 20.1381 381.896 21.4275C382.651 22.7169 383.029 24.2668 383.029 26.0772V42.644H371.698V30.1212C371.698 28.376 371.425 27.08 370.878 26.2335C370.331 25.3869 369.777 24.9636 369.217 24.9636C368.683 24.9636 368.286 25.185 368.025 25.6278C367.778 26.0576 367.654 26.5786 367.654 27.1908V42.644H356.577V30.1212ZM401.015 7.10734C402.865 7.10734 404.226 7.52412 405.098 8.35767C405.984 9.19122 406.427 10.1485 406.427 11.2295C406.427 12.037 406.173 12.838 405.665 13.6325C405.17 14.414 404.441 15.0652 403.477 15.5861C402.513 16.0941 401.334 16.3481 399.941 16.3481C397.935 16.3481 396.522 15.9443 395.701 15.1368C394.894 14.3163 394.49 13.3915 394.49 12.3626C394.49 11.5291 394.731 10.7151 395.213 9.92058C395.695 9.11308 396.418 8.44233 397.381 7.90833C398.358 7.37434 399.569 7.10734 401.015 7.10734ZM406.095 42.644H394.783V18.3603H406.095V42.644ZM434.65 30.9222C434.65 28.7993 434.337 27.2754 433.712 26.3507C433.1 25.426 432.266 24.9636 431.211 24.9636C430.625 24.9636 430.215 25.2111 429.981 25.706C429.759 26.2009 429.648 26.7935 429.648 27.4838V42.644H418.044V18.3603H424.452L427.246 22.1504C428.327 20.6786 429.785 19.526 431.622 18.6924C433.458 17.8589 435.36 17.4421 437.326 17.4421C438.967 17.4421 440.472 17.7872 441.839 18.4775C443.207 19.1548 444.294 20.1381 445.102 21.4275C445.922 22.7169 446.333 24.2668 446.333 26.0772V42.644H434.65V30.9222ZM457.188 31.7232C457.188 29.2616 457.598 27.1387 458.419 25.3543C459.239 23.557 460.34 22.0787 461.72 20.9196C463.114 19.7474 464.657 18.8813 466.35 18.3212C468.057 17.7612 469.789 17.4812 471.547 17.4812C472.472 17.4812 473.383 17.5463 474.282 17.6765C475.194 17.7937 476.066 17.9826 476.9 18.2431V9.76429H488.27V42.644H481.022L478.228 38.6C477.004 40.215 475.565 41.4067 473.911 42.1752C472.27 42.9436 470.577 43.3278 468.831 43.3278C467.36 43.3278 465.927 43.0673 464.533 42.5464C463.153 42.0254 461.909 41.2635 460.802 40.2606C459.695 39.2577 458.816 38.04 458.165 36.6073C457.513 35.1746 457.188 33.5466 457.188 31.7232ZM471.234 35.2397C472.055 35.2397 472.823 35.09 473.54 34.7904C474.256 34.4909 474.901 34.1392 475.474 33.7354C476.047 33.3317 476.522 32.98 476.9 32.6805V25.7255C476.457 25.452 475.956 25.3153 475.396 25.3153C474.679 25.3153 473.963 25.5367 473.247 25.9795C472.53 26.4093 471.873 26.9889 471.274 27.7182C470.674 28.4346 470.193 29.216 469.828 30.0626C469.476 30.9092 469.3 31.7427 469.3 32.5633C469.3 33.1754 469.444 33.7745 469.73 34.3606C470.03 34.9467 470.531 35.2397 471.234 35.2397ZM511.922 43.3669C510.346 43.3669 508.809 43.1194 507.311 42.6245C505.813 42.1296 504.459 41.3937 503.248 40.4169C502.036 39.427 501.072 38.2093 500.356 36.7636C499.64 35.3179 499.282 33.6378 499.282 31.7232C499.282 29.3398 499.705 27.2559 500.552 25.4716C501.411 23.6742 502.57 22.1829 504.029 20.9977C505.488 19.7995 507.142 18.9008 508.991 18.3017C510.841 17.7026 512.762 17.403 514.754 17.403C517.281 17.403 519.333 17.7872 520.908 18.5557C522.497 19.3241 523.663 20.3139 524.405 21.5252C525.148 22.7365 525.519 24.0128 525.519 25.3543C525.519 26.8 525.057 28.2001 524.132 29.5547C523.207 30.9092 521.846 32.0228 520.049 32.8954C518.265 33.768 516.063 34.2043 513.446 34.2043C513.198 34.2043 512.866 34.2043 512.449 34.2043C512.045 34.1913 511.694 34.1783 511.394 34.1652C511.394 34.9858 511.59 35.5784 511.98 35.9431C512.371 36.3077 512.859 36.5357 513.446 36.6268C514.045 36.718 514.644 36.7636 515.243 36.7636C515.777 36.7636 516.526 36.6789 517.49 36.5096C518.466 36.3273 519.521 36.0017 520.654 35.5328C521.788 35.0639 522.862 34.3932 523.878 33.5205L525.089 39.5964C523.552 40.9248 521.605 41.8886 519.248 42.4878C516.903 43.0738 514.461 43.3669 511.922 43.3669ZM511.394 29.7109L515.673 28.7537L516.044 25.7646C516.044 25.6865 516.05 25.6148 516.063 25.5497C516.076 25.4716 516.083 25.3934 516.083 25.3153C516.083 24.1691 515.549 23.5961 514.481 23.5961C513.556 23.6742 512.912 23.9933 512.547 24.5533C512.182 25.1004 511.948 25.8232 511.844 26.7219C511.739 27.6075 511.59 28.6039 511.394 29.7109ZM554.191 27.5229C553.384 27.5229 552.544 27.7313 551.671 28.148C550.799 28.5648 550.063 29.0662 549.464 29.6523C548.878 30.2384 548.585 30.792 548.585 31.3129V42.644H536.824V18.3603H548.585V20.9586C549.249 19.9558 550.069 19.1548 551.046 18.5557C552.036 17.9566 553.084 17.5984 554.191 17.4812V27.5229ZM595.008 43.3669C593.263 43.3669 591.564 43.0673 589.909 42.4682C588.255 41.8561 586.764 40.9834 585.436 39.8503C584.12 38.7042 583.072 37.3367 582.29 35.7477C581.522 34.1457 581.138 32.3614 581.138 30.3947C581.138 28.4541 581.502 26.6893 582.232 25.1004C582.961 23.5114 583.964 22.1504 585.24 21.0173C586.517 19.8711 587.988 18.992 589.656 18.3798C591.336 17.7547 593.12 17.4421 595.008 17.4421C597.665 17.4421 600.068 17.9696 602.217 19.0245C604.366 20.0665 606.066 21.5643 607.316 23.5179C608.58 25.4585 609.211 27.7768 609.211 30.4729C609.211 32.4526 608.827 34.2369 608.059 35.8258C607.29 37.4148 606.242 38.7693 604.913 39.8894C603.585 41.0095 602.068 41.8691 600.361 42.4682C598.668 43.0673 596.884 43.3669 595.008 43.3669ZM593.778 35.4742C594.351 35.4742 594.989 35.2072 595.692 34.6732C596.396 34.1262 597.073 33.4359 597.724 32.6023C598.375 31.7558 598.909 30.8701 599.326 29.9454C599.756 29.0207 599.971 28.1741 599.971 27.4057C599.971 26.8196 599.814 26.2856 599.502 25.8037C599.202 25.3218 598.681 25.0808 597.939 25.0808C597.262 25.0808 596.545 25.3413 595.79 25.8623C595.035 26.3702 594.325 27.041 593.66 27.8745C593.009 28.6951 592.475 29.5742 592.058 30.5119C591.655 31.4367 591.453 32.3223 591.453 33.1689C591.453 33.742 591.622 34.2694 591.961 34.7513C592.299 35.2332 592.905 35.4742 593.778 35.4742ZM619.246 18.3603H621.473V14.2381C621.473 12.7403 621.883 11.4705 622.704 10.4285C623.525 9.37356 624.612 8.57257 625.967 8.02555C627.334 7.46551 628.838 7.18549 630.48 7.18549C631.964 7.18549 633.416 7.36131 634.836 7.71297C636.269 8.0516 637.539 8.54652 638.646 9.19773V15.0391C637.968 14.8568 637.343 14.7656 636.77 14.7656C635.533 14.7656 634.641 15.1173 634.094 15.8206C633.547 16.5109 633.234 17.3574 633.156 18.3603H638.685V24.5533H633.156V42.644H621.473V24.5533H619.246V18.3603ZM685.285 11.4444H697.456V42.644H685.285V31.1176L678.798 31.6841V42.644H666.647V11.4444H678.798V22.7169L685.285 22.1894V11.4444ZM722.397 43.3669C720.651 43.3669 718.952 43.0673 717.298 42.4682C715.644 41.8561 714.152 40.9834 712.824 39.8503C711.508 38.7042 710.46 37.3367 709.678 35.7477C708.91 34.1457 708.526 32.3614 708.526 30.3947C708.526 28.4541 708.89 26.6893 709.62 25.1004C710.349 23.5114 711.352 22.1504 712.628 21.0173C713.905 19.8711 715.377 18.992 717.044 18.3798C718.724 17.7547 720.508 17.4421 722.397 17.4421C725.054 17.4421 727.457 17.9696 729.606 19.0245C731.755 20.0665 733.454 21.5643 734.705 23.5179C735.968 25.4585 736.6 27.7768 736.6 30.4729C736.6 32.4526 736.215 34.2369 735.447 35.8258C734.679 37.4148 733.63 38.7693 732.302 39.8894C730.973 41.0095 729.456 41.8691 727.75 42.4682C726.056 43.0673 724.272 43.3669 722.397 43.3669ZM721.166 35.4742C721.739 35.4742 722.377 35.2072 723.08 34.6732C723.784 34.1262 724.461 33.4359 725.112 32.6023C725.763 31.7558 726.297 30.8701 726.714 29.9454C727.144 29.0207 727.359 28.1741 727.359 27.4057C727.359 26.8196 727.203 26.2856 726.89 25.8037C726.59 25.3218 726.069 25.0808 725.327 25.0808C724.65 25.0808 723.934 25.3413 723.178 25.8623C722.423 26.3702 721.713 27.041 721.049 27.8745C720.397 28.6951 719.863 29.5742 719.447 30.5119C719.043 31.4367 718.841 32.3223 718.841 33.1689C718.841 33.742 719.01 34.2694 719.349 34.7513C719.688 35.2332 720.293 35.4742 721.166 35.4742ZM763.475 30.1212C763.475 28.376 763.175 27.08 762.576 26.2335C761.977 25.3869 761.397 24.9636 760.837 24.9636C760.251 24.9636 759.841 25.2111 759.607 25.706C759.385 26.2009 759.274 26.7935 759.274 27.4838V42.644H747.67V18.3603H754.078L756.871 22.1504C757.536 21.1605 758.376 20.3205 759.392 19.6302C760.421 18.9269 761.534 18.3864 762.732 18.0086C763.944 17.6309 765.148 17.4421 766.347 17.4421C767.896 17.4421 769.31 17.8133 770.586 18.5557C771.862 19.285 772.852 20.327 773.556 21.6815C774.61 20.34 775.854 19.2981 777.287 18.5557C778.72 17.8133 780.198 17.4421 781.722 17.4421C783.22 17.4421 784.587 17.7872 785.824 18.4775C787.062 19.1548 788.052 20.1381 788.794 21.4275C789.549 22.7169 789.927 24.2668 789.927 26.0772V42.644H778.596V30.1212C778.596 28.376 778.322 27.08 777.775 26.2335C777.228 25.3869 776.675 24.9636 776.115 24.9636C775.581 24.9636 775.184 25.185 774.923 25.6278C774.676 26.0576 774.552 26.5786 774.552 27.1908V42.644H763.475V30.1212ZM813.403 43.3669C811.827 43.3669 810.29 43.1194 808.792 42.6245C807.294 42.1296 805.94 41.3937 804.729 40.4169C803.517 39.427 802.553 38.2093 801.837 36.7636C801.121 35.3179 800.763 33.6378 800.763 31.7232C800.763 29.3398 801.186 27.2559 802.032 25.4716C802.892 23.6742 804.051 22.1829 805.51 20.9977C806.969 19.7995 808.623 18.9008 810.472 18.3017C812.322 17.7026 814.243 17.403 816.235 17.403C818.762 17.403 820.813 17.7872 822.389 18.5557C823.978 19.3241 825.144 20.3139 825.886 21.5252C826.629 22.7365 827 24.0128 827 25.3543C827 26.8 826.538 28.2001 825.613 29.5547C824.688 30.9092 823.327 32.0228 821.53 32.8954C819.745 33.768 817.544 34.2043 814.927 34.2043C814.679 34.2043 814.347 34.2043 813.93 34.2043C813.526 34.1913 813.175 34.1783 812.875 34.1652C812.875 34.9858 813.071 35.5784 813.461 35.9431C813.852 36.3077 814.34 36.5357 814.927 36.6268C815.526 36.718 816.125 36.7636 816.724 36.7636C817.258 36.7636 818.007 36.6789 818.971 36.5096C819.947 36.3273 821.002 36.0017 822.135 35.5328C823.269 35.0639 824.343 34.3932 825.359 33.5205L826.57 39.5964C825.033 40.9248 823.086 41.8886 820.729 42.4878C818.384 43.0738 815.942 43.3669 813.403 43.3669ZM812.875 29.7109L817.154 28.7537L817.525 25.7646C817.525 25.6865 817.531 25.6148 817.544 25.5497C817.557 25.4716 817.564 25.3934 817.564 25.3153C817.564 24.1691 817.03 23.5961 815.962 23.5961C815.037 23.6742 814.393 23.9933 814.028 24.5533C813.663 25.1004 813.429 25.8232 813.325 26.7219C813.22 27.6075 813.071 28.6039 812.875 29.7109Z" fill="#FFCB02"/>
<path d="M91.5793 41.5422C88.2503 42.8863 84.6478 43.5583 80.7718 43.5583C78.1148 43.5583 75.536 43.152 73.0354 42.3393C70.5503 41.5266 68.3154 40.3387 66.3305 38.7758C64.3612 37.2129 62.7905 35.2905 61.6183 33.0087C60.4617 30.7268 59.8835 28.1168 59.8835 25.1785C59.8835 22.0683 60.4305 19.2316 61.5245 16.6685C62.6342 14.0896 64.2049 11.8703 66.2367 10.0104C68.2685 8.13495 70.6754 6.68926 73.4573 5.67337C76.2393 4.65748 79.3183 4.14953 82.6942 4.14953C83.3193 4.14953 84.1086 4.18079 85.062 4.2433C86.031 4.30582 87.0312 4.42304 88.0628 4.59496C89.0943 4.75125 90.0242 4.98569 90.8525 5.29827V17.3952C89.821 17.0045 88.7661 16.8091 87.6877 16.8091C86.0779 16.8091 84.5931 17.2077 83.2334 18.0047C81.8736 18.7862 80.7874 19.8412 79.9747 21.1696C79.162 22.4981 78.7556 23.9751 78.7556 25.6005C78.7556 27.2103 79.0682 28.4684 79.6934 29.3749C80.3185 30.2814 81.2406 30.7347 82.4597 30.7347C82.9442 30.7347 83.5225 30.6565 84.1945 30.5002C84.8666 30.3439 85.7809 29.9532 86.9375 29.328C88.1096 28.7029 89.6569 27.687 91.5793 26.2804V41.5422ZM126.549 24.4986C125.58 24.4986 124.572 24.7487 123.525 25.2488C122.477 25.749 121.594 26.3507 120.875 27.054C120.172 27.7573 119.82 28.4215 119.82 29.0467V42.644H105.707V13.5036H119.82V16.6216C120.618 15.4181 121.602 14.4569 122.774 13.738C123.962 13.0191 125.22 12.5893 126.549 12.4486V24.4986ZM146.819 0C149.038 0 150.672 0.500132 151.719 1.5004C152.782 2.50066 153.313 3.6494 153.313 4.94662C153.313 5.91562 153.008 6.87681 152.399 7.83019C151.805 8.76793 150.93 9.54939 149.773 10.1746C148.617 10.7841 147.202 11.0889 145.53 11.0889C143.123 11.0889 141.427 10.6044 140.442 9.63535C139.473 8.65072 138.989 7.54105 138.989 6.30635C138.989 5.30608 139.278 4.32927 139.856 3.37589C140.435 2.40688 141.302 1.60198 142.459 0.961191C143.631 0.320397 145.084 0 146.819 0ZM152.915 42.644H139.341V13.5036H152.915V42.644ZM166.761 32.7039C167.058 32.7196 167.621 32.8758 168.449 33.1728C169.278 33.4698 170.208 33.7667 171.239 34.0637C172.271 34.345 173.232 34.4856 174.123 34.4856C174.576 34.4856 174.943 34.4075 175.224 34.2512C175.506 34.0793 175.646 33.7745 175.646 33.3369C175.646 32.7586 175.342 32.2741 174.732 31.8834C174.138 31.4927 173.396 31.0863 172.505 30.6643C171.614 30.2267 170.715 29.6719 169.809 28.9998C168.918 28.3278 168.168 27.4291 167.558 26.3038C166.964 25.1629 166.668 23.6937 166.668 21.8964C166.668 20.1459 167.035 18.669 167.769 17.4655C168.52 16.2465 169.52 15.2696 170.77 14.5351C172.036 13.7849 173.451 13.2457 175.013 12.9175C176.592 12.5736 178.21 12.4017 179.866 12.4017C181.289 12.4017 182.633 12.472 183.899 12.6127C185.165 12.7534 186.235 12.9096 187.11 13.0816C188.001 13.2379 188.564 13.3473 188.798 13.4098V22.248C188.798 22.248 188.517 22.1855 187.954 22.0605C187.407 21.9355 186.72 21.7948 185.891 21.6385C185.063 21.4822 184.227 21.3416 183.383 21.2165C182.539 21.0915 181.82 21.029 181.226 21.029C180.773 21.029 180.421 21.1306 180.171 21.3337C179.937 21.5369 179.819 21.7714 179.819 22.0371C179.819 22.2871 179.952 22.5294 180.218 22.7638C180.484 22.9982 181.023 23.2796 181.836 23.6078C183.07 24.1079 184.219 24.6159 185.282 25.1316C186.345 25.6317 187.275 26.2335 188.072 26.9368C188.884 27.6401 189.509 28.5388 189.947 29.6328C190.4 30.7268 190.627 32.1178 190.627 33.8058C190.627 37.0254 189.486 39.4479 187.204 41.0733C184.922 42.6987 181.89 43.5115 178.108 43.5115C175.107 43.5115 172.786 43.3317 171.145 42.9723C169.504 42.6284 168.363 42.2846 167.722 41.9407C167.082 41.5813 166.761 41.4015 166.761 41.4015V32.7039ZM226.159 12.4017C228.785 12.4017 230.973 12.9331 232.723 13.9959C234.489 15.0587 235.81 16.4809 236.685 18.2626C237.576 20.0287 238.022 21.998 238.022 24.1704C238.022 25.6708 237.803 27.2572 237.365 28.9295C236.928 30.6018 236.224 32.2429 235.255 33.8527C234.302 35.4468 233.044 36.9003 231.481 38.2132C229.918 39.5104 228.027 40.5576 225.807 41.3546C223.588 42.1517 220.986 42.5815 218.001 42.644V50.2398H204.075V13.5036H211.765L215.023 18.0047C216.899 15.9886 218.813 14.5507 220.767 13.6911C222.736 12.8315 224.534 12.4017 226.159 12.4017ZM223.815 22.0839C223.127 22.0839 222.408 22.3574 221.658 22.9045C220.908 23.4359 220.212 24.1314 219.571 24.991C218.931 25.8349 218.407 26.7258 218.001 27.6635V34.3919C218.407 34.1105 219.063 33.6807 219.97 33.1025C220.876 32.5242 221.83 31.8131 222.83 30.9691C223.83 30.1095 224.682 29.1327 225.385 28.0386C226.089 26.9446 226.44 25.749 226.44 24.4518C226.44 23.811 226.229 23.2561 225.807 22.7873C225.401 22.3184 224.737 22.0839 223.815 22.0839Z" fill="black"/>
</svg>
